<svg id="visual" viewBox="0 0 900 600" width="900" height="600" xmlns="http://www.w3.org/2000/svg" xmlns:xlink="http://www.w3.org/1999/xlink" version="1.1"><g stroke-width="1" stroke-linejoin="bevel"><path d="M492 285L588 283L510 194Z" fill="#15384f" stroke="#15384f"></path><path d="M588 283L616 200L510 194Z" fill="#246688" stroke="#246688"></path><path d="M392 190L393 285L492 285Z" fill="#112e42" stroke="#112e42"></path><path d="M597 103L499 99L510 194Z" fill="#277297" stroke="#277297"></path><path d="M510 194L392 190L492 285Z" fill="#15384f" stroke="#15384f"></path><path d="M616 200L597 103L510 194Z" fill="#1d4e6b" stroke="#1d4e6b"></path><path d="M417 410L511 402L492 285Z" fill="#246688" stroke="#246688"></path><path d="M492 285L511 402L588 283Z" fill="#205a7a" stroke="#205a7a"></path><path d="M605 409L681 316L588 283Z" fill="#112e42" stroke="#112e42"></path><path d="M588 283L681 316L616 200Z" fill="#205a7a" stroke="#205a7a"></path><path d="M616 200L682 112L597 103Z" fill="#246688" stroke="#246688"></path><path d="M403 107L392 190L510 194Z" fill="#15384f" stroke="#15384f"></path><path d="M511 402L605 409L588 283Z" fill="#081a28" stroke="#081a28"></path><path d="M681 316L714 190L616 200Z" fill="#15384f" stroke="#15384f"></path><path d="M499 99L403 107L510 194Z" fill="#00101c" stroke="#00101c"></path><path d="M714 190L682 112L616 200Z" fill="#081a28" stroke="#081a28"></path><path d="M393 285L417 410L492 285Z" fill="#297ea6" stroke="#297ea6"></path><path d="M511 402L591 482L605 409Z" fill="#15384f" stroke="#15384f"></path><path d="M605 409L702 404L681 316Z" fill="#246688" stroke="#246688"></path><path d="M681 316L809 292L714 190Z" fill="#297ea6" stroke="#297ea6"></path><path d="M481 491L591 482L511 402Z" fill="#1d4e6b" stroke="#1d4e6b"></path><path d="M605 409L705 493L702 404Z" fill="#0c2435" stroke="#0c2435"></path><path d="M417 410L481 491L511 402Z" fill="#112e42" stroke="#112e42"></path><path d="M700 0L588 0L597 103Z" fill="#297ea6" stroke="#297ea6"></path><path d="M597 103L588 0L499 99Z" fill="#19435d" stroke="#19435d"></path><path d="M499 99L482 0L403 107Z" fill="#15384f" stroke="#15384f"></path><path d="M285 203L289 282L393 285Z" fill="#277297" stroke="#277297"></path><path d="M393 285L309 404L417 410Z" fill="#205a7a" stroke="#205a7a"></path><path d="M417 410L392 484L481 491Z" fill="#246688" stroke="#246688"></path><path d="M285 203L393 285L392 190Z" fill="#246688" stroke="#246688"></path><path d="M588 0L482 0L499 99Z" fill="#297ea6" stroke="#297ea6"></path><path d="M294 97L392 190L403 107Z" fill="#00101c" stroke="#00101c"></path><path d="M294 97L285 203L392 190Z" fill="#297ea6" stroke="#297ea6"></path><path d="M786 405L809 292L681 316Z" fill="#081a28" stroke="#081a28"></path><path d="M714 190L788 84L682 112Z" fill="#205a7a" stroke="#205a7a"></path><path d="M289 282L309 404L393 285Z" fill="#1d4e6b" stroke="#1d4e6b"></path><path d="M309 404L392 484L417 410Z" fill="#1d4e6b" stroke="#1d4e6b"></path><path d="M482 0L399 0L403 107Z" fill="#277297" stroke="#277297"></path><path d="M809 292L818 189L714 190Z" fill="#15384f" stroke="#15384f"></path><path d="M682 112L700 0L597 103Z" fill="#297ea6" stroke="#297ea6"></path><path d="M399 0L294 97L403 107Z" fill="#15384f" stroke="#15384f"></path><path d="M705 493L786 405L702 404Z" fill="#277297" stroke="#277297"></path><path d="M702 404L786 405L681 316Z" fill="#081a28" stroke="#081a28"></path><path d="M788 84L700 0L682 112Z" fill="#0c2435" stroke="#0c2435"></path><path d="M591 482L705 493L605 409Z" fill="#081a28" stroke="#081a28"></path><path d="M600 600L705 493L591 482Z" fill="#19435d" stroke="#19435d"></path><path d="M818 189L788 84L714 190Z" fill="#19435d" stroke="#19435d"></path><path d="M399 0L306 0L294 97Z" fill="#277297" stroke="#277297"></path><path d="M209 109L285 203L294 97Z" fill="#277297" stroke="#277297"></path><path d="M209 109L200 190L285 203Z" fill="#205a7a" stroke="#205a7a"></path><path d="M285 203L200 190L289 282Z" fill="#297ea6" stroke="#297ea6"></path><path d="M289 282L214 390L309 404Z" fill="#00101c" stroke="#00101c"></path><path d="M900 0L794 0L788 84Z" fill="#112e42" stroke="#112e42"></path><path d="M788 84L794 0L700 0Z" fill="#00101c" stroke="#00101c"></path><path d="M200 190L187 291L289 282Z" fill="#246688" stroke="#246688"></path><path d="M309 404L288 518L392 484Z" fill="#19435d" stroke="#19435d"></path><path d="M187 291L214 390L289 282Z" fill="#19435d" stroke="#19435d"></path><path d="M405 600L488 600L481 491Z" fill="#297ea6" stroke="#297ea6"></path><path d="M481 491L488 600L591 482Z" fill="#1d4e6b" stroke="#1d4e6b"></path><path d="M405 600L481 491L392 484Z" fill="#277297" stroke="#277297"></path><path d="M204 0L209 109L294 97Z" fill="#19435d" stroke="#19435d"></path><path d="M84 195L95 302L187 291Z" fill="#277297" stroke="#277297"></path><path d="M488 600L600 600L591 482Z" fill="#15384f" stroke="#15384f"></path><path d="M809 292L900 292L818 189Z" fill="#15384f" stroke="#15384f"></path><path d="M818 189L900 95L788 84Z" fill="#19435d" stroke="#19435d"></path><path d="M900 400L900 292L809 292Z" fill="#297ea6" stroke="#297ea6"></path><path d="M900 400L809 292L786 405Z" fill="#205a7a" stroke="#205a7a"></path><path d="M900 292L900 185L818 189Z" fill="#081a28" stroke="#081a28"></path><path d="M214 390L288 518L309 404Z" fill="#081a28" stroke="#081a28"></path><path d="M803 600L808 504L705 493Z" fill="#0c2435" stroke="#0c2435"></path><path d="M705 493L808 504L786 405Z" fill="#297ea6" stroke="#297ea6"></path><path d="M288 518L405 600L392 484Z" fill="#112e42" stroke="#112e42"></path><path d="M600 600L689 600L705 493Z" fill="#297ea6" stroke="#297ea6"></path><path d="M900 185L900 95L818 189Z" fill="#081a28" stroke="#081a28"></path><path d="M808 504L900 400L786 405Z" fill="#205a7a" stroke="#205a7a"></path><path d="M306 0L204 0L294 97Z" fill="#19435d" stroke="#19435d"></path><path d="M84 195L187 291L200 190Z" fill="#205a7a" stroke="#205a7a"></path><path d="M195 600L288 600L288 518Z" fill="#00101c" stroke="#00101c"></path><path d="M288 518L288 600L405 600Z" fill="#112e42" stroke="#112e42"></path><path d="M900 95L900 0L788 84Z" fill="#297ea6" stroke="#297ea6"></path><path d="M900 600L900 500L808 504Z" fill="#277297" stroke="#277297"></path><path d="M808 504L900 500L900 400Z" fill="#297ea6" stroke="#297ea6"></path><path d="M689 600L803 600L705 493Z" fill="#277297" stroke="#277297"></path><path d="M113 411L182 516L214 390Z" fill="#297ea6" stroke="#297ea6"></path><path d="M214 390L182 516L288 518Z" fill="#205a7a" stroke="#205a7a"></path><path d="M84 195L200 190L81 104Z" fill="#1d4e6b" stroke="#1d4e6b"></path><path d="M187 291L113 411L214 390Z" fill="#277297" stroke="#277297"></path><path d="M95 302L113 411L187 291Z" fill="#205a7a" stroke="#205a7a"></path><path d="M81 104L200 190L209 109Z" fill="#205a7a" stroke="#205a7a"></path><path d="M100 0L81 104L209 109Z" fill="#205a7a" stroke="#205a7a"></path><path d="M182 516L195 600L288 518Z" fill="#297ea6" stroke="#297ea6"></path><path d="M113 600L195 600L182 516Z" fill="#205a7a" stroke="#205a7a"></path><path d="M204 0L100 0L209 109Z" fill="#081a28" stroke="#081a28"></path><path d="M0 390L95 486L113 411Z" fill="#19435d" stroke="#19435d"></path><path d="M113 411L95 486L182 516Z" fill="#0c2435" stroke="#0c2435"></path><path d="M0 390L113 411L95 302Z" fill="#081a28" stroke="#081a28"></path><path d="M803 600L900 600L808 504Z" fill="#15384f" stroke="#15384f"></path><path d="M81 104L0 196L84 195Z" fill="#297ea6" stroke="#297ea6"></path><path d="M84 195L0 305L95 302Z" fill="#19435d" stroke="#19435d"></path><path d="M0 91L0 196L81 104Z" fill="#19435d" stroke="#19435d"></path><path d="M0 196L0 305L84 195Z" fill="#19435d" stroke="#19435d"></path><path d="M95 486L113 600L182 516Z" fill="#19435d" stroke="#19435d"></path><path d="M0 600L113 600L95 486Z" fill="#00101c" stroke="#00101c"></path><path d="M0 305L0 390L95 302Z" fill="#1d4e6b" stroke="#1d4e6b"></path><path d="M0 0L0 91L81 104Z" fill="#0c2435" stroke="#0c2435"></path><path d="M100 0L0 0L81 104Z" fill="#15384f" stroke="#15384f"></path><path d="M0 390L0 497L95 486Z" fill="#081a28" stroke="#081a28"></path><path d="M0 497L0 600L95 486Z" fill="#19435d" stroke="#19435d"></path></g></svg>